<svg width="1081" height="208" viewBox="0 0 1081 208" fill="none" xmlns="http://www.w3.org/2000/svg">
<rect x="0.200195" width="1080" height="207.692" rx="42" fill="#FFE79D"/>
<path d="M121.442 152V56.1758H135.255L168.458 136.926H168.856L202.06 56.1758H215.872V152H204.716V77.957H199.271L212.22 58.832L173.704 152H163.61L125.095 58.832L138.044 77.957H132.599V152H121.442ZM250.868 153.328C246.308 153.328 242.302 152.465 238.849 150.738C235.396 149.012 232.695 146.577 230.747 143.434C228.843 140.29 227.892 136.638 227.892 132.477V132.344C227.892 128.404 228.866 124.995 230.813 122.117C232.806 119.24 235.661 116.96 239.38 115.277C243.143 113.595 247.659 112.599 252.927 112.289L278.493 110.828V119.793L254.255 121.254C249.651 121.52 246.065 122.626 243.497 124.574C240.974 126.522 239.712 129.112 239.712 132.344V132.477C239.712 135.797 240.951 138.431 243.431 140.379C245.954 142.327 249.297 143.301 253.458 143.301C257.088 143.301 260.342 142.548 263.22 141.043C266.142 139.493 268.444 137.391 270.126 134.734C271.853 132.078 272.716 129.09 272.716 125.77V105.383C272.716 101.177 271.388 97.8789 268.731 95.4883C266.119 93.0534 262.401 91.8359 257.575 91.8359C253.148 91.8359 249.562 92.8099 246.817 94.7578C244.117 96.6615 242.435 99.1628 241.771 102.262L241.638 102.859H230.481L230.548 102.129C230.902 98.3216 232.186 94.8685 234.399 91.7695C236.657 88.6706 239.756 86.2135 243.696 84.3984C247.636 82.5391 252.307 81.6094 257.708 81.6094C263.153 81.6094 267.846 82.5391 271.786 84.3984C275.771 86.2578 278.847 88.8919 281.017 92.3008C283.186 95.6654 284.271 99.6497 284.271 104.254V152H272.716V140.777H272.45C271.122 143.301 269.351 145.514 267.138 147.418C264.924 149.277 262.423 150.738 259.634 151.801C256.889 152.819 253.967 153.328 250.868 153.328ZM298.946 152V82.9375H310.501V92.7656H310.767C312.626 89.5339 315.326 86.8776 318.868 84.7969C322.41 82.6719 326.793 81.6094 332.017 81.6094C339.587 81.6094 345.453 83.9115 349.614 88.5156C353.82 93.0755 355.923 99.2956 355.923 107.176V152H344.368V109.234C344.368 103.612 343.04 99.3177 340.384 96.3516C337.772 93.3411 333.81 91.8359 328.497 91.8359C324.867 91.8359 321.701 92.6549 319.001 94.293C316.3 95.8867 314.198 98.1445 312.692 101.066C311.231 103.988 310.501 107.419 310.501 111.359V152H298.946ZM394.239 153.328C389.192 153.328 384.876 152.288 381.29 150.207C377.748 148.126 375.026 145.182 373.122 141.375C371.263 137.523 370.333 132.986 370.333 127.762V82.9375H381.888V125.703C381.888 131.326 383.194 135.642 385.806 138.652C388.462 141.618 392.446 143.102 397.759 143.102C400.504 143.102 402.961 142.637 405.13 141.707C407.343 140.777 409.247 139.471 410.841 137.789C412.435 136.062 413.652 134.004 414.493 131.613C415.334 129.178 415.755 126.5 415.755 123.578V82.9375H427.31V152H415.755V142.172H415.489C414.25 144.297 412.634 146.201 410.642 147.883C408.694 149.565 406.347 150.893 403.603 151.867C400.858 152.841 397.737 153.328 394.239 153.328ZM462.571 153.328C458.011 153.328 454.005 152.465 450.552 150.738C447.099 149.012 444.398 146.577 442.45 143.434C440.547 140.29 439.595 136.638 439.595 132.477V132.344C439.595 128.404 440.569 124.995 442.517 122.117C444.509 119.24 447.364 116.96 451.083 115.277C454.846 113.595 459.362 112.599 464.63 112.289L490.196 110.828V119.793L465.958 121.254C461.354 121.52 457.768 122.626 455.2 124.574C452.677 126.522 451.415 129.112 451.415 132.344V132.477C451.415 135.797 452.655 138.431 455.134 140.379C457.657 142.327 461 143.301 465.161 143.301C468.791 143.301 472.045 142.548 474.923 141.043C477.845 139.493 480.147 137.391 481.829 134.734C483.556 132.078 484.419 129.09 484.419 125.77V105.383C484.419 101.177 483.091 97.8789 480.435 95.4883C477.823 93.0534 474.104 91.8359 469.278 91.8359C464.851 91.8359 461.265 92.8099 458.521 94.7578C455.82 96.6615 454.138 99.1628 453.474 102.262L453.341 102.859H442.185L442.251 102.129C442.605 98.3216 443.889 94.8685 446.103 91.7695C448.36 88.6706 451.459 86.2135 455.399 84.3984C459.34 82.5391 464.01 81.6094 469.411 81.6094C474.856 81.6094 479.549 82.5391 483.489 84.3984C487.474 86.2578 490.55 88.8919 492.72 92.3008C494.889 95.6654 495.974 99.6497 495.974 104.254V152H484.419V140.777H484.153C482.825 143.301 481.054 145.514 478.841 147.418C476.627 149.277 474.126 150.738 471.337 151.801C468.592 152.819 465.67 153.328 462.571 153.328ZM511.247 152V56.1758H522.802V152H511.247ZM568.091 152V56.1758H604.017C610.17 56.1758 615.527 57.3711 620.087 59.7617C624.691 62.1081 628.255 65.4284 630.778 69.7227C633.302 73.9727 634.563 78.9753 634.563 84.7305V84.8633C634.563 91.5039 632.837 97.2591 629.384 102.129C625.975 106.954 621.282 110.319 615.306 112.223L637.485 152H623.474L602.954 114.082C602.821 114.082 602.688 114.082 602.556 114.082C602.467 114.082 602.356 114.082 602.224 114.082H580.044V152H568.091ZM580.044 103.523H602.954C609.108 103.523 613.845 101.93 617.165 98.7422C620.53 95.5547 622.212 91.0169 622.212 85.1289V84.9961C622.212 79.2852 620.441 74.8359 616.899 71.6484C613.402 68.4167 608.576 66.8008 602.423 66.8008H580.044V103.523ZM676.267 153.328C669.67 153.328 663.981 151.867 659.2 148.945C654.463 146.023 650.811 141.906 648.243 136.594C645.72 131.237 644.458 124.951 644.458 117.734V117.668C644.458 110.54 645.742 104.276 648.31 98.875C650.877 93.4297 654.485 89.2018 659.134 86.1914C663.782 83.1367 669.25 81.6094 675.536 81.6094C681.823 81.6094 687.224 83.0703 691.739 85.9922C696.299 88.8698 699.797 92.9206 702.231 98.1445C704.666 103.368 705.884 109.434 705.884 116.34V120.59H650.235V111.559H700.173L694.329 119.926V115.477C694.329 110.12 693.51 105.693 691.872 102.195C690.278 98.6979 688.065 96.1081 685.231 94.4258C682.398 92.6992 679.144 91.8359 675.47 91.8359C671.795 91.8359 668.497 92.7435 665.575 94.5586C662.653 96.3294 660.351 98.9857 658.669 102.527C656.987 106.025 656.146 110.341 656.146 115.477V119.926C656.146 124.796 656.965 128.957 658.603 132.41C660.285 135.863 662.653 138.52 665.708 140.379C668.763 142.194 672.371 143.102 676.532 143.102C679.454 143.102 682.066 142.659 684.368 141.773C686.67 140.888 688.596 139.671 690.146 138.121C691.695 136.572 692.802 134.801 693.466 132.809L693.665 132.211H705.021L704.888 132.875C704.312 135.708 703.205 138.365 701.567 140.844C699.974 143.323 697.915 145.514 695.392 147.418C692.868 149.277 689.991 150.738 686.759 151.801C683.527 152.819 680.03 153.328 676.267 153.328ZM734.372 152L708.938 82.9375H721.091L740.149 139.715H740.415L759.54 82.9375H771.56L746.192 152H734.372ZM781.388 152V82.9375H792.942V152H781.388ZM787.165 71.25C785.173 71.25 783.468 70.5417 782.052 69.125C780.635 67.7083 779.927 66.0039 779.927 64.0117C779.927 61.9753 780.635 60.2708 782.052 58.8984C783.468 57.4818 785.173 56.7734 787.165 56.7734C789.201 56.7734 790.906 57.4818 792.278 58.8984C793.695 60.2708 794.403 61.9753 794.403 64.0117C794.403 66.0039 793.695 67.7083 792.278 69.125C790.906 70.5417 789.201 71.25 787.165 71.25ZM837.103 153.328C830.506 153.328 824.817 151.867 820.036 148.945C815.299 146.023 811.647 141.906 809.079 136.594C806.556 131.237 805.294 124.951 805.294 117.734V117.668C805.294 110.54 806.578 104.276 809.146 98.875C811.713 93.4297 815.321 89.2018 819.97 86.1914C824.618 83.1367 830.086 81.6094 836.372 81.6094C842.659 81.6094 848.06 83.0703 852.575 85.9922C857.135 88.8698 860.632 92.9206 863.067 98.1445C865.502 103.368 866.72 109.434 866.72 116.34V120.59H811.071V111.559H861.009L855.165 119.926V115.477C855.165 110.12 854.346 105.693 852.708 102.195C851.114 98.6979 848.901 96.1081 846.067 94.4258C843.234 92.6992 839.98 91.8359 836.306 91.8359C832.631 91.8359 829.333 92.7435 826.411 94.5586C823.489 96.3294 821.187 98.9857 819.505 102.527C817.823 106.025 816.981 110.341 816.981 115.477V119.926C816.981 124.796 817.8 128.957 819.438 132.41C821.121 135.863 823.489 138.52 826.544 140.379C829.599 142.194 833.207 143.102 837.368 143.102C840.29 143.102 842.902 142.659 845.204 141.773C847.506 140.888 849.432 139.671 850.981 138.121C852.531 136.572 853.638 134.801 854.302 132.809L854.501 132.211H865.856L865.724 132.875C865.148 135.708 864.041 138.365 862.403 140.844C860.81 143.323 858.751 145.514 856.228 147.418C853.704 149.277 850.826 150.738 847.595 151.801C844.363 152.819 840.866 153.328 837.103 153.328ZM892.087 152L872.763 82.9375H884.251L898.063 139.117H898.329L913.935 82.9375H925.091L940.763 139.117H941.028L954.841 82.9375H966.263L947.005 152H935.251L919.646 98.543H919.38L903.841 152H892.087Z" fill="black"/>
</svg>
